<svg width="261" height="283" viewBox="0 0 261 283" fill="none" xmlns="http://www.w3.org/2000/svg">
<g filter="url(#filter0_d)">
<path d="M248.761 66.2214V96.9126C248.042 120.052 241.626 142.656 230.083 162.723C212.633 197.097 167.78 231.427 130.381 254.314C92.9816 231.427 48.1287 197.097 30.6785 162.723C19.1348 142.656 12.7192 120.052 12.0005 96.9126V66.2214H248.761Z" fill="#C03A2B"/>
<path d="M248.761 66.2214V96.9126C248.042 120.052 241.626 142.656 230.083 162.723C212.633 197.097 167.78 231.427 130.381 254.314V66.2214H248.761Z" fill="#802D40"/>
<path d="M130.38 20.1189C155.302 -7.19635 205.144 -5.31991 230.07 17.554C254.995 40.428 254.991 86.2409 230.07 132.028C212.624 166.389 167.762 200.727 130.38 223.623C92.9985 200.728 48.1367 166.389 30.6909 132.045C5.76969 86.2588 5.76969 40.4672 30.6909 17.554C55.6122 -5.35914 105.459 -7.19585 130.38 20.1189Z" fill="#FF5364"/>
<path d="M78.9475 38.2781C70.585 30.8475 55.9698 33.6425 46.3037 44.5209C36.6375 55.3993 35.5807 70.2417 43.9433 77.6724C52.3058 85.103 66.9209 82.308 76.5871 71.4296C86.2532 60.5512 87.31 45.7087 78.9475 38.2781Z" fill="#FB7B76"/>
<path d="M75.0435 109.598C71.3629 103.223 64.5117 100.288 59.741 103.043C54.9703 105.797 54.0866 113.198 57.7672 119.573C61.4479 125.948 68.2991 128.883 73.0698 126.128C77.8405 123.374 78.7242 115.973 75.0435 109.598Z" fill="#FB7B76"/>
</g>
<defs>
<filter id="filter0_d" x="0" y="0" width="260.762" height="282.314" filterUnits="userSpaceOnUse" color-interpolation-filters="sRGB">
<feFlood flood-opacity="0" result="BackgroundImageFix"/>
<feColorMatrix in="SourceAlpha" type="matrix" values="0 0 0 0 0 0 0 0 0 0 0 0 0 0 0 0 0 0 127 0"/>
<feOffset dy="16"/>
<feGaussianBlur stdDeviation="6"/>
<feColorMatrix type="matrix" values="0 0 0 0 0 0 0 0 0 0 0 0 0 0 0 0 0 0 0.7 0"/>
<feBlend mode="normal" in2="BackgroundImageFix" result="effect1_dropShadow"/>
<feBlend mode="normal" in="SourceGraphic" in2="effect1_dropShadow" result="shape"/>
</filter>
</defs>
</svg>
