<svg width="305" height="96" viewBox="0 0 305 96" fill="none" xmlns="http://www.w3.org/2000/svg">
<path d="M49.1611 1.14456V51.2191H32.3466V32.763H16.8145V51.2191H0V1.14456H16.8145V18.8852H32.3466V1.14456H49.1611Z" fill="#E9CCAB"/>
<path d="M83.4108 52.3636C78.0435 52.3636 73.2224 51.2429 68.9475 49.0015C64.6726 46.7601 61.324 43.6602 58.9015 39.7019C56.4791 35.696 55.2679 31.1893 55.2679 26.1818C55.2679 21.1744 56.4791 16.6915 58.9015 12.7332C61.324 8.72727 64.6726 5.60358 68.9475 3.36215C73.2224 1.12072 78.0435 0 83.4108 0C88.7782 0 93.5993 1.12072 97.8742 3.36215C102.149 5.60358 105.498 8.72727 107.92 12.7332C110.343 16.6915 111.554 21.1744 111.554 26.1818C111.554 31.1893 110.343 35.696 107.92 39.7019C105.498 43.6602 102.149 46.7601 97.8742 49.0015C93.5993 51.2429 88.7782 52.3636 83.4108 52.3636ZM83.4108 38.7004C85.5008 38.7004 87.377 38.1997 89.0394 37.1982C90.7494 36.149 92.1031 34.6945 93.1006 32.8346C94.0981 30.927 94.5968 28.7094 94.5968 26.1818C94.5968 23.6542 94.0981 21.4605 93.1006 19.6006C92.1031 17.693 90.7494 16.2385 89.0394 15.237C87.377 14.1878 85.5008 13.6632 83.4108 13.6632C81.3209 13.6632 79.421 14.1878 77.711 15.237C76.0485 16.2385 74.7186 17.693 73.7211 19.6006C72.7236 21.4605 72.2249 23.6542 72.2249 26.1818C72.2249 28.7094 72.7236 30.927 73.7211 32.8346C74.7186 34.6945 76.0485 36.149 77.711 37.1982C79.421 38.1997 81.3209 38.7004 83.4108 38.7004Z" fill="#E9CCAB"/>
<path d="M117.657 1.14456H134.471V38.1282H156.986V51.2191H117.657V1.14456Z" fill="#E9CCAB"/>
<path d="M203.096 38.4858V51.2191H161.63V1.14456H202.17V13.8778H178.16V19.7437H199.249V31.9046H178.16V38.4858H203.096Z" fill="#E9CCAB"/>
<path d="M230.93 1.14456H247.744V51.2191H230.93V1.14456Z" fill="#E9CCAB"/>
<path d="M305 1.14456V51.2191H291.178L272.226 28.4709V51.2191H255.839V1.14456H269.661L288.613 23.8927V1.14456H305Z" fill="#E9CCAB"/>
<path d="M11.1165 67.8733H0V57.9174H35.0305V67.8733H23.914V96H11.1165V67.8733Z" fill="#E9CCAB"/>
<path d="M75.7709 57.9174V96H62.9733V81.9638H51.1519V96H38.3544V57.9174H51.1519V71.4095H62.9733V57.9174H75.7709Z" fill="#E9CCAB"/>
<path d="M113.497 86.3161V96H81.937V57.9174H112.792V67.6012H94.5176V72.0623H110.569V81.311H94.5176V86.3161H113.497Z" fill="#E9CCAB"/>
<path d="M196.445 57.9174L184.298 96H170.579L164.451 75.653L157.999 96H144.279L132.132 57.9174H145.309L151.925 79.5701L158.92 57.9174H170.688L177.303 79.8421L184.298 57.9174H196.445Z" fill="#E9CCAB"/>
<path d="M223.776 89.3627H209.352L206.803 96H193.789L210.382 57.9174H222.963L239.556 96H226.325L223.776 89.3627ZM220.252 80.1141L216.564 70.539L212.877 80.1141H220.252Z" fill="#E9CCAB"/>
<path d="M241.599 57.9174H254.396V86.0441H271.532V96H241.599V57.9174Z" fill="#E9CCAB"/>
<path d="M275.067 57.9174H287.864V86.0441H305V96H275.067V57.9174Z" fill="#E9CCAB"/>
</svg>
