<svg width="994" height="595" viewBox="0 0 994 595" fill="none" xmlns="http://www.w3.org/2000/svg">
<path d="M40.1998 61.2211L57.4283 53.5685L74.6569 40.8141H89.0139C98.5853 34.0117 74.6569 30.6106 74.6569 30.6106C74.6569 30.6106 97.6283 30.6106 109.114 17.8562V25.5088H117.728L126.342 33.1615L137.828 25.5088L140.7 43.365L149.314 38.2632L155.057 35.7123L176.814 30.6106L197.53 17.8562L215.356 25.5088L292.885 33.1614H321.599V25.5088L292.885 0L347.442 35.7123L347.852 34.2548L349.165 24.1483L341.699 15.3053L365.986 10.2035L350.313 15.3053L349.165 24.1483L350.313 25.5088L347.852 34.2548L341.699 81.6282L379.027 91.8317L396.256 107.137H424.97L439.327 112.239L456.556 109.688L496.755 102.035H502.498L505.37 94.3825L511.113 91.8317L499.627 66.3229L479.527 45.9159H499.627L522.598 66.3229L534.084 63.772H557.055C580.357 68.8738 591.512 28.0597 591.512 22.9579C591.512 18.688 615.136 16.2049 619.473 15.5087L619.494 15.3053C620.43 15.3053 620.318 15.3731 619.473 15.5087L617.355 35.7123L643.198 61.2211H660.426V48.4667V35.7123L669.041 17.8562L671.912 38.2632L680.526 43.365L735.083 71.4247L766.669 53.5685L781.026 43.365L809.74 40.8141L835.583 38.2632L844.197 33.1615L852.811 10.2035L844.197 38.2632L852.811 43.365L858.554 53.5685L864.297 66.3229L878.654 61.2211L884.397 56.1194L895.883 61.2211L904.497 43.365L910.24 33.1615L936.083 10.2035C926.511 19.5568 913.111 40.3039 936.083 48.4667L950.44 43.365L967.668 48.4667L976.282 43.365L987.768 63.772L979.154 71.4247V94.3826L967.668 104.586L961.925 107.137V112.239L956.182 114.79L950.44 119.891L944.697 130.095L938.954 140.298L930.34 150.502L910.24 168.358L913.111 173.46L917.418 174.735H923.879L938.954 165.807H947.568H950.44L959.054 163.256L950.44 150.502C956.428 158.861 970.52 174.285 983.287 176.011H987.768C986.304 176.228 984.805 176.216 983.287 176.011H964.797L948.341 166.265L938.53 168.403L921.725 176.011L915.983 181.113V188.765L924.597 196.418L930.34 209.172L950.44 219.376L993.511 237.232L944.697 227.028H938.954L927.468 237.232L913.111 260.19L915.983 267.842L924.597 270.393L913.111 275.495L910.24 280.597L895.883 283.148L898.754 288.25L930.34 293.351L950.44 357.123H936.083L941.825 367.327L964.797 387.734L984.897 403.039V413.243L993.511 418.344V425.997L984.897 443.853L973.411 459.158L964.797 479.566L967.668 487.218L970.539 492.32H959.054H944.697L936.083 497.422L956.182 550.99L901.626 502.523L847.069 543.338L838.454 581.601L809.74 568.846L700.626 581.601L683.398 594.355V581.601L677.655 571.397H657.555L557.055 584.152L531.212 573.948L479.527 584.152L465.17 563.745L416.356 533.134L395 538L366.5 533.134L333.085 528.032V543.338L298.628 528.032L275.486 543.338L246.942 528.032L229.714 510.176L215.356 499.973L189.514 502.523L178.028 520.38L169.414 533.134L152.185 515.278L132.085 520.38L111.985 512.727L91.8854 517.829L86.1426 499.973L63.1712 497.422L66.0426 474.464H48.8141L31.5856 464.26L2.87143 459.158L11.4857 443.853L17.2285 438.751L0 423.446L11.4857 403.039L0 367.327L8.61422 342.923L0 313.923L8.61426 283.148L36.486 253.923L11.4857 237.232L40.1998 219.376L36.486 209.172L11.4857 181.113C54.557 189.615 45.9427 193.357 68.9141 191.316L103.371 155.604L129.214 160.706L120.6 145.4L123.471 127.544L114.857 114.79L109.114 104.586H97.6282L80.3997 99.4844L57.4283 84.1791L51.6855 81.6282L40.1998 63.772V61.2211Z" fill="#222222"/>
</svg>
