<svg width="56" height="56" viewBox="0 0 56 56" fill="none" xmlns="http://www.w3.org/2000/svg">
<path opacity="0.1" fill-rule="evenodd" clip-rule="evenodd" d="M27.8404 55.6801C43.2161 55.6801 55.6805 43.2157 55.6805 27.8401C55.6805 12.4644 43.2161 0 27.8404 0C12.4648 0 0.000366211 12.4644 0.000366211 27.8401C0.000366211 43.2157 12.4648 55.6801 27.8404 55.6801Z" fill="#C9CFD1"/>
<path opacity="0.1" fill-rule="evenodd" clip-rule="evenodd" d="M27.7942 40.258C36.3539 40.258 43.293 33.319 43.293 24.7592C43.293 16.1995 36.3539 9.26044 27.7942 9.26044C19.2344 9.26044 12.2954 16.1995 12.2954 24.7592C12.2954 33.319 19.2344 40.258 27.7942 40.258Z" fill="#C9CFD1"/>
<path opacity="0.7" fill-rule="evenodd" clip-rule="evenodd" d="M44.0548 38.8593C44.0548 38.5056 43.7681 38.2189 43.4144 38.2189C43.0607 38.2189 42.7739 38.5056 42.7739 38.8593C42.7739 39.213 43.0607 39.4998 43.4144 39.4998C43.7681 39.4998 44.0548 39.213 44.0548 38.8593ZM43.158 15.1629C43.5118 15.1629 43.7985 15.4496 43.7985 15.8033C43.7985 16.157 43.5118 16.4438 43.158 16.4438C42.8043 16.4438 42.5176 16.157 42.5176 15.8033C42.5176 15.4496 42.8043 15.1629 43.158 15.1629ZM6.9975 11.389L6.90879 11.8325L6.82008 11.389C6.71867 10.8819 6.32232 10.4856 5.81527 10.3842L5.37172 10.2955L5.81527 10.2067C6.32232 10.1053 6.71867 9.70898 6.82008 9.20193L6.90879 8.75838L6.9975 9.20193C7.09891 9.70898 7.49526 10.1053 8.00232 10.2067L8.44586 10.2955L8.00232 10.3842C7.49526 10.4856 7.09891 10.8819 6.9975 11.389Z" fill="#FFF100"/>
<path fill-rule="evenodd" clip-rule="evenodd" d="M9.47071 6.58086C9.2768 6.54208 9.12523 6.39051 9.08645 6.19659C9.04766 6.39051 8.89609 6.54208 8.70218 6.58086C8.89609 6.61964 9.04766 6.77122 9.08645 6.96513C9.12523 6.77122 9.2768 6.61964 9.47071 6.58086ZM9.855 34.12C9.94549 34.5725 10.2992 34.9261 10.7516 35.0166C10.2992 35.1071 9.94549 35.4608 9.855 35.9133C9.76451 35.4608 9.41084 35.1071 8.95838 35.0166C9.41084 34.9261 9.76451 34.5725 9.855 34.12ZM38.2908 35.1447C38.3554 35.4678 38.608 35.7205 38.9312 35.7851C38.608 35.8497 38.3554 36.1024 38.2908 36.4256C38.2261 36.1024 37.9735 35.8497 37.6503 35.7851C37.9735 35.7205 38.2261 35.4678 38.2908 35.1447Z" fill="#00AEFF"/>
<path fill-rule="evenodd" clip-rule="evenodd" d="M27.8404 41.7646C36.1683 41.7646 42.9194 35.0135 42.9194 26.6856C42.9194 18.3577 36.1683 11.6066 27.8404 11.6066C19.5125 11.6066 12.7614 18.3577 12.7614 26.6856C12.7614 35.0135 19.5125 41.7646 27.8404 41.7646Z" fill="#222222" stroke="#424343"/>
<path d="M28.817 21.5643L23.8688 32.9374H21.1881L26.1451 22.1971H19.7819V20.1405H28.817V21.5643ZM30.6188 23.0848C30.6188 22.1473 30.8971 21.3944 31.4537 20.826C32.0162 20.2518 32.7516 19.9647 33.6598 19.9647C34.568 19.9647 35.3033 20.2489 35.8658 20.8173C36.4283 21.3856 36.7096 22.1561 36.7096 23.1288V23.7616C36.7096 24.6932 36.4342 25.4462 35.8834 26.0204C35.3326 26.5887 34.5973 26.8729 33.6774 26.8729C32.7516 26.8729 32.0104 26.5858 31.4537 26.0116C30.8971 25.4374 30.6188 24.6727 30.6188 23.7177V23.0848ZM32.1569 23.7616C32.1569 24.3358 32.2916 24.7841 32.5612 25.1063C32.8365 25.4286 33.2086 25.5897 33.6774 25.5897C34.1344 25.5897 34.4948 25.4315 34.7584 25.1151C35.028 24.7987 35.1656 24.3563 35.1715 23.788V23.0848C35.1715 22.5165 35.0338 22.0712 34.7584 21.7489C34.4889 21.4266 34.1227 21.2655 33.6598 21.2655C33.2028 21.2655 32.8365 21.4266 32.5612 21.7489C32.2916 22.0653 32.1569 22.5223 32.1569 23.12V23.7616Z" fill="#E9CCAB"/>
</svg>
