<svg width="56" height="57" viewBox="0 0 56 57" fill="none" xmlns="http://www.w3.org/2000/svg">
<path opacity="0.1" fill-rule="evenodd" clip-rule="evenodd" d="M27.8404 56.0033C43.2161 56.0033 55.6805 43.5389 55.6805 28.1632C55.6805 12.7876 43.2161 0.323181 27.8404 0.323181C12.4648 0.323181 0.000366211 12.7876 0.000366211 28.1632C0.000366211 43.5389 12.4648 56.0033 27.8404 56.0033Z" fill="#C9CFD1"/>
<path opacity="0.1" fill-rule="evenodd" clip-rule="evenodd" d="M27.7942 40.5812C36.3539 40.5812 43.293 33.6422 43.293 25.0824C43.293 16.5227 36.3539 9.58362 27.7942 9.58362C19.2344 9.58362 12.2954 16.5227 12.2954 25.0824C12.2954 33.6422 19.2344 40.5812 27.7942 40.5812Z" fill="#C9CFD1"/>
<path opacity="0.7" fill-rule="evenodd" clip-rule="evenodd" d="M44.0548 39.1825C44.0548 38.8288 43.7681 38.542 43.4144 38.542C43.0607 38.542 42.7739 38.8288 42.7739 39.1825C42.7739 39.5362 43.0607 39.8229 43.4144 39.8229C43.7681 39.8229 44.0548 39.5362 44.0548 39.1825ZM43.158 15.486C43.5118 15.486 43.7985 15.7728 43.7985 16.1265C43.7985 16.4802 43.5118 16.7669 43.158 16.7669C42.8043 16.7669 42.5176 16.4802 42.5176 16.1265C42.5176 15.7728 42.8043 15.486 43.158 15.486ZM6.9975 11.7122L6.90879 12.1557L6.82008 11.7122C6.71867 11.2051 6.32232 10.8088 5.81527 10.7073L5.37172 10.6186L5.81527 10.5299C6.32232 10.4285 6.71867 10.0322 6.82008 9.52511L6.90879 9.08156L6.9975 9.52511C7.09891 10.0322 7.49526 10.4285 8.00232 10.5299L8.44586 10.6186L8.00232 10.7073C7.49526 10.8088 7.09891 11.2051 6.9975 11.7122Z" fill="#FFF100"/>
<path fill-rule="evenodd" clip-rule="evenodd" d="M9.47071 6.90404C9.2768 6.86526 9.12523 6.71369 9.08645 6.51978C9.04766 6.71369 8.89609 6.86526 8.70218 6.90404C8.89609 6.94283 9.04766 7.0944 9.08645 7.28831C9.12523 7.0944 9.2768 6.94283 9.47071 6.90404ZM9.855 34.4432C9.94549 34.8957 10.2992 35.2493 10.7516 35.3398C10.2992 35.4303 9.94549 35.784 9.855 36.2364C9.76451 35.784 9.41084 35.4303 8.95838 35.3398C9.41084 35.2493 9.76451 34.8957 9.855 34.4432ZM38.2908 35.4678C38.3554 35.791 38.608 36.0437 38.9312 36.1083C38.608 36.1729 38.3554 36.4256 38.2908 36.7487C38.2261 36.4256 37.9735 36.1729 37.6503 36.1083C37.9735 36.0437 38.2261 35.791 38.2908 35.4678Z" fill="#00AEFF"/>
<path fill-rule="evenodd" clip-rule="evenodd" d="M27.8404 42.0878C36.1683 42.0878 42.9194 35.3367 42.9194 27.0088C42.9194 18.6809 36.1683 11.9297 27.8404 11.9297C19.5125 11.9297 12.7614 18.6809 12.7614 27.0088C12.7614 35.3367 19.5125 42.0878 27.8404 42.0878Z" fill="#DEAD4E" stroke="#424343"/>
<path d="M26.2858 33.2606H23.7457V23.4695L20.7135 24.41V22.3445L26.0133 20.4461H26.2858V33.2606ZM30.6188 23.408C30.6188 22.4705 30.8971 21.7176 31.4537 21.1492C32.0162 20.575 32.7516 20.2879 33.6598 20.2879C34.568 20.2879 35.3033 20.5721 35.8658 21.1404C36.4283 21.7088 36.7096 22.4793 36.7096 23.452V24.0848C36.7096 25.0164 36.4342 25.7693 35.8834 26.3436C35.3326 26.9119 34.5973 27.1961 33.6774 27.1961C32.7516 27.1961 32.0104 26.909 31.4537 26.3348C30.8971 25.7606 30.6188 24.9959 30.6188 24.0408V23.408ZM32.1569 24.0848C32.1569 24.659 32.2916 25.1072 32.5612 25.4295C32.8365 25.7518 33.2086 25.9129 33.6774 25.9129C34.1344 25.9129 34.4948 25.7547 34.7584 25.4383C35.028 25.1219 35.1656 24.6795 35.1715 24.1111V23.408C35.1715 22.8397 35.0338 22.3943 34.7584 22.0721C34.4889 21.7498 34.1227 21.5887 33.6598 21.5887C33.2028 21.5887 32.8365 21.7498 32.5612 22.0721C32.2916 22.3885 32.1569 22.8455 32.1569 23.4432V24.0848Z" fill="#353B50"/>
</svg>
