<svg width="56" height="56" viewBox="0 0 56 56" fill="none" xmlns="http://www.w3.org/2000/svg">
<path opacity="0.1" fill-rule="evenodd" clip-rule="evenodd" d="M27.8404 55.6801C43.2161 55.6801 55.6805 43.2157 55.6805 27.8401C55.6805 12.4644 43.2161 0 27.8404 0C12.4648 0 0.000366211 12.4644 0.000366211 27.8401C0.000366211 43.2157 12.4648 55.6801 27.8404 55.6801Z" fill="#C9CFD1"/>
<path opacity="0.1" fill-rule="evenodd" clip-rule="evenodd" d="M27.7942 40.258C36.3539 40.258 43.293 33.319 43.293 24.7592C43.293 16.1995 36.3539 9.26041 27.7942 9.26041C19.2344 9.26041 12.2954 16.1995 12.2954 24.7592C12.2954 33.319 19.2344 40.258 27.7942 40.258Z" fill="#C9CFD1"/>
<path opacity="0.7" fill-rule="evenodd" clip-rule="evenodd" d="M44.0548 38.8593C44.0548 38.5056 43.7681 38.2189 43.4144 38.2189C43.0607 38.2189 42.7739 38.5056 42.7739 38.8593C42.7739 39.213 43.0607 39.4998 43.4144 39.4998C43.7681 39.4998 44.0548 39.213 44.0548 38.8593ZM43.158 15.1629C43.5118 15.1629 43.7985 15.4496 43.7985 15.8033C43.7985 16.157 43.5118 16.4438 43.158 16.4438C42.8043 16.4438 42.5176 16.157 42.5176 15.8033C42.5176 15.4496 42.8043 15.1629 43.158 15.1629ZM6.9975 11.389L6.90879 11.8325L6.82008 11.389C6.71867 10.8819 6.32232 10.4856 5.81527 10.3842L5.37172 10.2955L5.81527 10.2067C6.32232 10.1053 6.71867 9.70898 6.82008 9.20193L6.90879 8.75838L6.9975 9.20193C7.09891 9.70898 7.49526 10.1053 8.00232 10.2067L8.44586 10.2955L8.00232 10.3842C7.49526 10.4856 7.09891 10.8819 6.9975 11.389Z" fill="#FFF100"/>
<path fill-rule="evenodd" clip-rule="evenodd" d="M9.47071 6.58083C9.2768 6.54205 9.12523 6.39048 9.08645 6.19656C9.04766 6.39048 8.89609 6.54205 8.70218 6.58083C8.89609 6.61961 9.04766 6.77119 9.08645 6.9651C9.12523 6.77119 9.2768 6.61961 9.47071 6.58083ZM9.855 34.12C9.94549 34.5724 10.2992 34.9261 10.7516 35.0166C10.2992 35.1071 9.94549 35.4608 9.855 35.9132C9.76451 35.4608 9.41084 35.1071 8.95838 35.0166C9.41084 34.9261 9.76451 34.5724 9.855 34.12ZM38.2908 35.1446C38.3554 35.4678 38.608 35.7204 38.9312 35.7851C38.608 35.8497 38.3554 36.1023 38.2908 36.4255C38.2261 36.1023 37.9735 35.8497 37.6503 35.7851C37.9735 35.7204 38.2261 35.4678 38.2908 35.1446Z" fill="#00AEFF"/>
<path fill-rule="evenodd" clip-rule="evenodd" d="M30.3052 41.2506C38.6331 41.2506 45.3842 34.4995 45.3842 26.1715C45.3842 17.8436 38.6331 11.0925 30.3052 11.0925C21.9773 11.0925 15.2262 17.8436 15.2262 26.1715C15.2262 34.4995 21.9773 41.2506 30.3052 41.2506Z" fill="#222222" stroke="#424343"/>
<path d="M24.7068 32.4233H22.1667V22.6323L19.1345 23.5728V21.5073L24.4343 19.6089H24.7068V32.4233ZM36.2261 27.1323C36.2261 28.9019 35.8599 30.2554 35.1274 31.1929C34.395 32.1304 33.3227 32.5991 31.9106 32.5991C30.5161 32.5991 29.4497 32.1392 28.7114 31.2192C27.9731 30.2993 27.5952 28.981 27.5776 27.2642V24.9087C27.5776 23.1216 27.9468 21.7651 28.6851 20.8394C29.4292 19.9136 30.4985 19.4507 31.8931 19.4507C33.2876 19.4507 34.354 19.9106 35.0923 20.8306C35.8306 21.7446 36.2085 23.0601 36.2261 24.7769V27.1323ZM33.686 24.5483C33.686 23.4878 33.5395 22.7173 33.2466 22.2368C32.9595 21.7505 32.5083 21.5073 31.8931 21.5073C31.2954 21.5073 30.853 21.7388 30.5659 22.2017C30.2847 22.6587 30.1352 23.3765 30.1177 24.355V27.4663C30.1177 28.5093 30.2583 29.2856 30.5395 29.7954C30.8267 30.2993 31.2837 30.5513 31.9106 30.5513C32.5317 30.5513 32.98 30.3081 33.2554 29.8218C33.5308 29.3354 33.6743 28.5913 33.686 27.5894V24.5483ZM36.8557 22.5708C36.8557 21.6333 37.134 20.8804 37.6907 20.312C38.2532 19.7378 38.9885 19.4507 39.8967 19.4507C40.8049 19.4507 41.5403 19.7349 42.1028 20.3032C42.6653 20.8716 42.9465 21.6421 42.9465 22.6147V23.2476C42.9465 24.1792 42.6711 24.9321 42.1204 25.5063C41.5696 26.0747 40.8342 26.3589 39.9143 26.3589C38.9885 26.3589 38.2473 26.0718 37.6907 25.4976C37.134 24.9233 36.8557 24.1587 36.8557 23.2036V22.5708ZM38.3938 23.2476C38.3938 23.8218 38.5286 24.27 38.7981 24.5923C39.0735 24.9146 39.4456 25.0757 39.9143 25.0757C40.3713 25.0757 40.7317 24.9175 40.9954 24.6011C41.2649 24.2847 41.4026 23.8423 41.4085 23.2739V22.5708C41.4085 22.0024 41.2708 21.5571 40.9954 21.2349C40.7258 20.9126 40.3596 20.7515 39.8967 20.7515C39.4397 20.7515 39.0735 20.9126 38.7981 21.2349C38.5286 21.5513 38.3938 22.0083 38.3938 22.606V23.2476Z" fill="#E9CCAB"/>
</svg>
