<svg width="56" height="56" viewBox="0 0 56 56" fill="none" xmlns="http://www.w3.org/2000/svg">
<path opacity="0.1" fill-rule="evenodd" clip-rule="evenodd" d="M27.8404 55.6801C43.2161 55.6801 55.6805 43.2157 55.6805 27.8401C55.6805 12.4644 43.2161 0 27.8404 0C12.4648 0 0.000366211 12.4644 0.000366211 27.8401C0.000366211 43.2157 12.4648 55.6801 27.8404 55.6801Z" fill="#C9CFD1"/>
<path opacity="0.1" fill-rule="evenodd" clip-rule="evenodd" d="M27.7942 40.258C36.3539 40.258 43.293 33.319 43.293 24.7592C43.293 16.1995 36.3539 9.26044 27.7942 9.26044C19.2344 9.26044 12.2954 16.1995 12.2954 24.7592C12.2954 33.319 19.2344 40.258 27.7942 40.258Z" fill="#C9CFD1"/>
<path opacity="0.7" fill-rule="evenodd" clip-rule="evenodd" d="M44.0548 38.8593C44.0548 38.5056 43.7681 38.2189 43.4144 38.2189C43.0607 38.2189 42.7739 38.5056 42.7739 38.8593C42.7739 39.213 43.0607 39.4998 43.4144 39.4998C43.7681 39.4998 44.0548 39.213 44.0548 38.8593ZM43.158 15.1629C43.5118 15.1629 43.7985 15.4496 43.7985 15.8033C43.7985 16.157 43.5118 16.4438 43.158 16.4438C42.8043 16.4438 42.5176 16.157 42.5176 15.8033C42.5176 15.4496 42.8043 15.1629 43.158 15.1629ZM6.9975 11.389L6.90879 11.8325L6.82008 11.389C6.71867 10.8819 6.32232 10.4856 5.81527 10.3842L5.37172 10.2955L5.81527 10.2067C6.32232 10.1053 6.71867 9.70898 6.82008 9.20193L6.90879 8.75838L6.9975 9.20193C7.09891 9.70898 7.49526 10.1053 8.00232 10.2067L8.44586 10.2955L8.00232 10.3842C7.49526 10.4856 7.09891 10.8819 6.9975 11.389Z" fill="#FFF100"/>
<path fill-rule="evenodd" clip-rule="evenodd" d="M9.47071 6.58086C9.2768 6.54208 9.12523 6.39051 9.08645 6.19659C9.04766 6.39051 8.89609 6.54208 8.70218 6.58086C8.89609 6.61964 9.04766 6.77122 9.08645 6.96513C9.12523 6.77122 9.2768 6.61964 9.47071 6.58086ZM9.855 34.12C9.94549 34.5725 10.2992 34.9261 10.7516 35.0166C10.2992 35.1071 9.94549 35.4608 9.855 35.9133C9.76451 35.4608 9.41084 35.1071 8.95838 35.0166C9.41084 34.9261 9.76451 34.5725 9.855 34.12ZM38.2908 35.1447C38.3554 35.4678 38.608 35.7205 38.9312 35.7851C38.608 35.8497 38.3554 36.1024 38.2908 36.4256C38.2261 36.1024 37.9735 35.8497 37.6503 35.7851C37.9735 35.7205 38.2261 35.4678 38.2908 35.1447Z" fill="#00AEFF"/>
<path fill-rule="evenodd" clip-rule="evenodd" d="M30.3052 41.2506C38.6331 41.2506 45.3842 34.4995 45.3842 26.1715C45.3842 17.8436 38.6331 11.0925 30.3052 11.0925C21.9773 11.0925 15.2262 17.8436 15.2262 26.1715C15.2262 34.4995 21.9773 41.2506 30.3052 41.2506Z" fill="#222222" stroke="#424343"/>
<path d="M23.3917 26.1304L24.13 19.6265H31.3019V21.7446H26.213L25.8966 24.4956C26.5001 24.1733 27.1417 24.0122 27.8214 24.0122C29.0402 24.0122 29.9953 24.3901 30.6867 25.146C31.3781 25.9019 31.7238 26.9595 31.7238 28.3188C31.7238 29.145 31.548 29.8862 31.1964 30.5425C30.8507 31.1929 30.3527 31.6997 29.7023 32.063C29.0519 32.4204 28.2843 32.5991 27.3996 32.5991C26.6261 32.5991 25.9083 32.4438 25.2462 32.1333C24.5841 31.8169 24.0597 31.3745 23.673 30.8062C23.2921 30.2378 23.09 29.5903 23.0665 28.8638H25.5802C25.6329 29.397 25.8175 29.813 26.1339 30.1118C26.4562 30.4048 26.8751 30.5513 27.3908 30.5513C27.965 30.5513 28.4074 30.3462 28.7179 29.936C29.0285 29.52 29.1837 28.9341 29.1837 28.1782C29.1837 27.4517 29.005 26.895 28.6476 26.5083C28.2902 26.1216 27.7833 25.9282 27.1271 25.9282C26.5236 25.9282 26.0343 26.0864 25.6593 26.4028L25.4132 26.6313L23.3917 26.1304ZM34.4167 22.5708C34.4167 21.6333 34.6951 20.8804 35.2517 20.312C35.8142 19.7378 36.5496 19.4507 37.4578 19.4507C38.366 19.4507 39.1013 19.7349 39.6638 20.3032C40.2263 20.8716 40.5076 21.6421 40.5076 22.6147V23.2476C40.5076 24.1792 40.2322 24.9321 39.6814 25.5063C39.1306 26.0747 38.3953 26.3589 37.4753 26.3589C36.5496 26.3589 35.8083 26.0718 35.2517 25.4976C34.6951 24.9233 34.4167 24.1587 34.4167 23.2036V22.5708ZM35.9548 23.2476C35.9548 23.8218 36.0896 24.27 36.3591 24.5923C36.6345 24.9146 37.0066 25.0757 37.4753 25.0757C37.9324 25.0757 38.2927 24.9175 38.5564 24.6011C38.8259 24.2847 38.9636 23.8423 38.9695 23.2739V22.5708C38.9695 22.0024 38.8318 21.5571 38.5564 21.2349C38.2869 20.9126 37.9206 20.7515 37.4578 20.7515C37.0007 20.7515 36.6345 20.9126 36.3591 21.2349C36.0896 21.5513 35.9548 22.0083 35.9548 22.606V23.2476Z" fill="#E9CCAB"/>
</svg>
