<svg width="57" height="57" viewBox="0 0 57 57" fill="none" xmlns="http://www.w3.org/2000/svg">
<path opacity="0.1" fill-rule="evenodd" clip-rule="evenodd" d="M28.2575 56.3984C43.6332 56.3984 56.0976 43.934 56.0976 28.5583C56.0976 13.1827 43.6332 0.718262 28.2575 0.718262C12.8819 0.718262 0.41748 13.1827 0.41748 28.5583C0.41748 43.934 12.8819 56.3984 28.2575 56.3984Z" fill="#C9CFD1"/>
<path opacity="0.1" fill-rule="evenodd" clip-rule="evenodd" d="M28.2112 40.9763C36.771 40.9763 43.71 34.0373 43.71 25.4775C43.71 16.9177 36.771 9.9787 28.2112 9.9787C19.6515 9.9787 12.7124 16.9177 12.7124 25.4775C12.7124 34.0373 19.6515 40.9763 28.2112 40.9763Z" fill="#C9CFD1"/>
<path opacity="0.7" fill-rule="evenodd" clip-rule="evenodd" d="M44.4719 39.5776C44.4719 39.2239 44.1852 38.9371 43.8315 38.9371C43.4778 38.9371 43.191 39.2239 43.191 39.5776C43.191 39.9313 43.4778 40.218 43.8315 40.218C44.1852 40.218 44.4719 39.9313 44.4719 39.5776ZM43.5752 15.8811C43.9289 15.8811 44.2156 16.1679 44.2156 16.5216C44.2156 16.8753 43.9289 17.162 43.5752 17.162C43.2214 17.162 42.9347 16.8753 42.9347 16.5216C42.9347 16.1679 43.2214 15.8811 43.5752 15.8811ZM7.41462 12.1072L7.3259 12.5508L7.23719 12.1072C7.13578 11.6002 6.73944 11.2038 6.23238 11.1024L5.78883 11.0137L6.23238 10.925C6.73944 10.8236 7.13578 10.4272 7.23719 9.92019L7.3259 9.47664L7.41462 9.92019C7.51603 10.4272 7.91237 10.8236 8.41943 10.925L8.86298 11.0137L8.41943 11.1024C7.91237 11.2038 7.51603 11.6002 7.41462 12.1072Z" fill="#FFF100"/>
<path fill-rule="evenodd" clip-rule="evenodd" d="M30.7223 41.9688C39.0502 41.9688 45.8013 35.2177 45.8013 26.8898C45.8013 18.5619 39.0502 11.8108 30.7223 11.8108C22.3944 11.8108 15.6433 18.5619 15.6433 26.8898C15.6433 35.2177 22.3944 41.9688 30.7223 41.9688Z" fill="#222222" stroke="#424343"/>
<path d="M26.0149 25.6182H27.3684C28.0129 25.6182 28.4905 25.457 28.801 25.1348C29.1116 24.8125 29.2668 24.3848 29.2668 23.8516C29.2668 23.3359 29.1116 22.9346 28.801 22.6475C28.4963 22.3604 28.0745 22.2168 27.5354 22.2168C27.0491 22.2168 26.6418 22.3516 26.3137 22.6211C25.9856 22.8848 25.8215 23.2305 25.8215 23.6582H23.2815C23.2815 22.9902 23.4602 22.3926 23.8176 21.8652C24.1809 21.332 24.6848 20.916 25.3293 20.6172C25.9797 20.3184 26.6946 20.1689 27.4739 20.1689C28.8274 20.1689 29.8879 20.4941 30.6555 21.1445C31.4231 21.7891 31.8069 22.6797 31.8069 23.8164C31.8069 24.4023 31.6282 24.9414 31.2708 25.4336C30.9133 25.9258 30.4446 26.3037 29.8645 26.5674C30.5852 26.8252 31.1213 27.2119 31.4729 27.7275C31.8303 28.2432 32.009 28.8525 32.009 29.5557C32.009 30.6924 31.593 31.6035 30.761 32.2891C29.9348 32.9746 28.8391 33.3174 27.4739 33.3174C26.1965 33.3174 25.1506 32.9805 24.3362 32.3066C23.5276 31.6328 23.1233 30.7422 23.1233 29.6348H25.6633C25.6633 30.1152 25.842 30.5078 26.1995 30.8125C26.5627 31.1172 27.0081 31.2695 27.5354 31.2695C28.1389 31.2695 28.6106 31.1113 28.9504 30.7949C29.2961 30.4727 29.469 30.0479 29.469 29.5205C29.469 28.2432 28.7659 27.6045 27.3596 27.6045H26.0149V25.6182ZM34.8338 23.2891C34.8338 22.3516 35.1122 21.5986 35.6688 21.0303C36.2313 20.4561 36.9667 20.1689 37.8749 20.1689C38.7831 20.1689 39.5184 20.4531 40.0809 21.0215C40.6434 21.5898 40.9247 22.3604 40.9247 23.333V23.9658C40.9247 24.8975 40.6493 25.6504 40.0985 26.2246C39.5477 26.793 38.8124 27.0771 37.8924 27.0771C36.9667 27.0771 36.2254 26.79 35.6688 26.2158C35.1122 25.6416 34.8338 24.877 34.8338 23.9219V23.2891ZM36.3719 23.9658C36.3719 24.54 36.5067 24.9883 36.7762 25.3105C37.0516 25.6328 37.4237 25.7939 37.8924 25.7939C38.3495 25.7939 38.7098 25.6357 38.9735 25.3193C39.243 25.0029 39.3807 24.5605 39.3866 23.9922V23.2891C39.3866 22.7207 39.2489 22.2754 38.9735 21.9531C38.704 21.6309 38.3377 21.4697 37.8749 21.4697C37.4178 21.4697 37.0516 21.6309 36.7762 21.9531C36.5067 22.2695 36.3719 22.7266 36.3719 23.3242V23.9658Z" fill="#E9CCAB"/>
</svg>
