<svg width="56" height="56" viewBox="0 0 56 56" fill="none" xmlns="http://www.w3.org/2000/svg">
<path opacity="0.1" fill-rule="evenodd" clip-rule="evenodd" d="M27.8404 55.6801C43.2161 55.6801 55.6805 43.2157 55.6805 27.8401C55.6805 12.4644 43.2161 0 27.8404 0C12.4648 0 0.000366211 12.4644 0.000366211 27.8401C0.000366211 43.2157 12.4648 55.6801 27.8404 55.6801Z" fill="#C9CFD1"/>
<path opacity="0.1" fill-rule="evenodd" clip-rule="evenodd" d="M27.7942 40.258C36.3539 40.258 43.293 33.319 43.293 24.7592C43.293 16.1995 36.3539 9.26044 27.7942 9.26044C19.2344 9.26044 12.2954 16.1995 12.2954 24.7592C12.2954 33.319 19.2344 40.258 27.7942 40.258Z" fill="#C9CFD1"/>
<path opacity="0.7" fill-rule="evenodd" clip-rule="evenodd" d="M44.0548 38.8593C44.0548 38.5056 43.7681 38.2189 43.4144 38.2189C43.0607 38.2189 42.7739 38.5056 42.7739 38.8593C42.7739 39.213 43.0607 39.4998 43.4144 39.4998C43.7681 39.4998 44.0548 39.213 44.0548 38.8593ZM43.158 15.1629C43.5118 15.1629 43.7985 15.4496 43.7985 15.8033C43.7985 16.157 43.5118 16.4438 43.158 16.4438C42.8043 16.4438 42.5176 16.157 42.5176 15.8033C42.5176 15.4496 42.8043 15.1629 43.158 15.1629ZM6.9975 11.389L6.90879 11.8325L6.82008 11.389C6.71867 10.8819 6.32232 10.4856 5.81527 10.3842L5.37172 10.2955L5.81527 10.2067C6.32232 10.1053 6.71867 9.70898 6.82008 9.20193L6.90879 8.75838L6.9975 9.20193C7.09891 9.70898 7.49526 10.1053 8.00232 10.2067L8.44586 10.2955L8.00232 10.3842C7.49526 10.4856 7.09891 10.8819 6.9975 11.389Z" fill="#FFF100"/>
<path fill-rule="evenodd" clip-rule="evenodd" d="M9.47071 6.58086C9.2768 6.54208 9.12523 6.39051 9.08645 6.19659C9.04766 6.39051 8.89609 6.54208 8.70218 6.58086C8.89609 6.61964 9.04766 6.77122 9.08645 6.96513C9.12523 6.77122 9.2768 6.61964 9.47071 6.58086ZM9.855 34.12C9.94549 34.5725 10.2992 34.9261 10.7516 35.0166C10.2992 35.1071 9.94549 35.4608 9.855 35.9133C9.76451 35.4608 9.41084 35.1071 8.95838 35.0166C9.41084 34.9261 9.76451 34.5725 9.855 34.12ZM38.2908 35.1447C38.3554 35.4678 38.608 35.7205 38.9312 35.7851C38.608 35.8497 38.3554 36.1024 38.2908 36.4256C38.2261 36.1024 37.9735 35.8497 37.6503 35.7851C37.9735 35.7205 38.2261 35.4678 38.2908 35.1447Z" fill="#00AEFF"/>
<path fill-rule="evenodd" clip-rule="evenodd" d="M30.3052 42.919C38.6331 42.919 45.3842 36.1679 45.3842 27.84C45.3842 19.5121 38.6331 12.761 30.3052 12.761C21.9773 12.761 15.2262 19.5121 15.2262 27.84C15.2262 36.1679 21.9773 42.919 30.3052 42.919Z" fill="#222222" stroke="#424343"/>
<path d="M30.6437 34.0918H21.8722V32.3516L26.0118 27.9395C26.5802 27.3184 26.9991 26.7764 27.2687 26.3135C27.5441 25.8506 27.6818 25.4111 27.6818 24.9951C27.6818 24.4268 27.5382 23.9814 27.2511 23.6592C26.964 23.3311 26.5538 23.167 26.0206 23.167C25.4464 23.167 24.9923 23.3662 24.6583 23.7646C24.3302 24.1572 24.1661 24.6758 24.1661 25.3203H21.6173C21.6173 24.541 21.8019 23.8291 22.171 23.1846C22.546 22.54 23.0734 22.0361 23.7531 21.6729C24.4327 21.3037 25.2032 21.1191 26.0646 21.1191C27.3829 21.1191 28.4054 21.4355 29.132 22.0684C29.8644 22.7012 30.2306 23.5947 30.2306 24.749C30.2306 25.3818 30.0665 26.0264 29.7384 26.6826C29.4103 27.3389 28.8478 28.1035 28.0509 28.9766L25.1417 32.0439H30.6437V34.0918ZM33.2751 24.2393C33.2751 23.3018 33.5534 22.5488 34.1101 21.9805C34.6726 21.4062 35.4079 21.1191 36.3161 21.1191C37.2243 21.1191 37.9597 21.4033 38.5222 21.9717C39.0847 22.54 39.3659 23.3105 39.3659 24.2832V24.916C39.3659 25.8477 39.0906 26.6006 38.5398 27.1748C37.989 27.7432 37.2536 28.0273 36.3337 28.0273C35.4079 28.0273 34.6667 27.7402 34.1101 27.166C33.5534 26.5918 33.2751 25.8271 33.2751 24.8721V24.2393ZM34.8132 24.916C34.8132 25.4902 34.948 25.9385 35.2175 26.2607C35.4929 26.583 35.865 26.7441 36.3337 26.7441C36.7907 26.7441 37.1511 26.5859 37.4148 26.2695C37.6843 25.9531 37.822 25.5107 37.8279 24.9424V24.2393C37.8279 23.6709 37.6902 23.2256 37.4148 22.9033C37.1452 22.5811 36.779 22.4199 36.3161 22.4199C35.8591 22.4199 35.4929 22.5811 35.2175 22.9033C34.948 23.2197 34.8132 23.6768 34.8132 24.2744V24.916Z" fill="#E9CCAB"/>
</svg>
