<svg width="69" height="71" viewBox="0 0 69 71" fill="none" xmlns="http://www.w3.org/2000/svg">
<path fill-rule="evenodd" clip-rule="evenodd" d="M36.0993 45.733C36.4754 45.7895 36.8541 45.8177 37.2353 45.8177C37.6165 45.8177 37.9952 45.7895 38.3713 45.733C38.3713 45.733 38.0205 47.2098 38.0205 48.6866C38.0205 50.1635 38.3713 51.6403 38.3713 51.6403H36.0993C36.0993 51.6403 36.4501 50.1635 36.4501 48.6866C36.4501 47.2098 36.0993 45.733 36.0993 45.733Z" fill="url(#paint0_linear)"/>
<path fill-rule="evenodd" clip-rule="evenodd" d="M36.0993 45.733C36.4754 45.7895 36.8541 45.8177 37.2353 45.8177C37.6165 45.8177 37.9952 45.7895 38.3713 45.733C38.3713 45.733 38.0205 47.2098 38.0205 48.6866C38.0205 50.1635 38.3713 51.6403 38.3713 51.6403H36.0993C36.0993 51.6403 36.4501 50.1635 36.4501 48.6866C36.4501 47.2098 36.0993 45.733 36.0993 45.733Z" fill="url(#paint1_linear)"/>
<path fill-rule="evenodd" clip-rule="evenodd" d="M33.3857 51.8145H41.0851C41.6166 51.8145 42.0475 52.2453 42.0475 52.7769V53.4643H32.4232V52.7769C32.4232 52.2453 32.8541 51.8145 33.3857 51.8145Z" fill="url(#paint2_linear)"/>
<path fill-rule="evenodd" clip-rule="evenodd" d="M33.3857 51.8145H41.0851C41.6166 51.8145 42.0475 52.2453 42.0475 52.7769V53.4643H32.4232V52.7769C32.4232 52.2453 32.8541 51.8145 33.3857 51.8145Z" fill="url(#paint3_linear)"/>
<path fill-rule="evenodd" clip-rule="evenodd" d="M28.2665 25.7833H46.1401V36.6449C46.1401 41.5806 42.139 45.5817 37.2033 45.5817C32.2677 45.5817 28.2665 41.5806 28.2665 36.6449V25.7833Z" fill="url(#paint4_linear)"/>
<path fill-rule="evenodd" clip-rule="evenodd" d="M28.2665 25.7833H46.1401V36.6449C46.1401 41.5806 42.139 45.5817 37.2033 45.5817C32.2677 45.5817 28.2665 41.5806 28.2665 36.6449V25.7833Z" fill="url(#paint5_linear)"/>
<path fill-rule="evenodd" clip-rule="evenodd" d="M28.2665 25.7833H46.1401V36.6449C46.1401 41.5806 42.139 45.5817 37.2033 45.5817C32.2677 45.5817 28.2665 41.5806 28.2665 36.6449V25.7833Z" fill="url(#paint6_linear)"/>
<rect x="27.1666" y="23.9041" width="20.0734" height="1.6957" rx="0.84785" fill="url(#paint7_linear)"/>
<rect x="27.1666" y="23.9041" width="20.0734" height="1.6957" rx="0.84785" fill="url(#paint8_linear)"/>
<rect x="27.1666" y="23.9041" width="20.0734" height="1.6957" rx="0.84785" fill="url(#paint9_linear)"/>
<path fill-rule="evenodd" clip-rule="evenodd" d="M25.5902 28.8079H28.1481V31.2827H26.5495C26.1951 31.2827 25.9079 31.5699 25.9079 31.9243V35.1363C25.9079 36.297 26.8488 37.2379 28.0094 37.2379C28.019 37.5471 28.0652 37.9027 28.1481 38.3046C28.231 38.7065 28.336 39.0842 28.4631 39.4377C25.865 39.4888 23.7174 37.424 23.6663 34.8258C23.6657 34.795 23.6654 34.7642 23.6654 34.7333V30.7327C23.6654 29.6696 24.5272 28.8079 25.5902 28.8079Z" fill="url(#paint10_linear)"/>
<path fill-rule="evenodd" clip-rule="evenodd" d="M25.5902 28.8079H28.1481V31.2827H26.5495C26.1951 31.2827 25.9079 31.5699 25.9079 31.9243V35.1363C25.9079 36.297 26.8488 37.2379 28.0094 37.2379C28.019 37.5471 28.0652 37.9027 28.1481 38.3046C28.231 38.7065 28.336 39.0842 28.4631 39.4377C25.865 39.4888 23.7174 37.424 23.6663 34.8258C23.6657 34.795 23.6654 34.7642 23.6654 34.7333V30.7327C23.6654 29.6696 24.5272 28.8079 25.5902 28.8079Z" fill="url(#paint11_linear)"/>
<path fill-rule="evenodd" clip-rule="evenodd" d="M48.8161 28.8079H46.2583V31.2827H47.8568C48.2112 31.2827 48.4985 31.5699 48.4985 31.9243V35.1363C48.4985 36.297 47.5576 37.2379 46.3969 37.2379C46.3874 37.5471 46.3412 37.9027 46.2583 38.3046C46.1754 38.7065 46.0703 39.0842 45.9432 39.4377C48.5413 39.4888 50.689 37.424 50.7401 34.8258C50.7407 34.795 50.741 34.7642 50.741 34.7333V30.7327C50.741 29.6696 49.8792 28.8079 48.8161 28.8079Z" fill="url(#paint12_linear)"/>
<path fill-rule="evenodd" clip-rule="evenodd" d="M30.9109 53.602H43.5599C44.0914 53.602 44.5223 54.0329 44.5223 54.5644V60.7514H29.9484V54.5644C29.9484 54.0329 30.3793 53.602 30.9109 53.602Z" fill="url(#paint13_linear)"/>
<path fill-rule="evenodd" clip-rule="evenodd" d="M30.9109 53.602H43.5599C44.0914 53.602 44.5223 54.0329 44.5223 54.5644V60.7514H29.9484V54.5644C29.9484 54.0329 30.3793 53.602 30.9109 53.602Z" fill="url(#paint14_linear)"/>
<rect x="29.4791" y="60.7386" width="15.7838" height="0.701501" rx="0.35075" fill="url(#paint15_linear)"/>
<path fill-rule="evenodd" clip-rule="evenodd" d="M32.9732 55.8475V55.458C32.9732 55.3694 33.045 55.2975 33.1336 55.2975H41.3372C41.4258 55.2975 41.4976 55.3694 41.4976 55.458V55.8475C41.4976 56.1512 41.7438 56.3975 42.0475 56.3975H42.4371C42.5257 56.3975 42.5975 56.4693 42.5975 56.5579V58.4369C42.5975 58.5255 42.5257 58.5973 42.4371 58.5973H42.0475C41.7438 58.5973 41.4976 58.8435 41.4976 59.1472V59.5368C41.4976 59.6254 41.4258 59.6972 41.3372 59.6972H33.1336C33.045 59.6972 32.9732 59.6254 32.9732 59.5368V59.1472C32.9732 58.8437 32.7271 58.5976 32.4236 58.5976L32.0337 58.5979C31.9451 58.5979 31.8733 58.5262 31.8732 58.4376L31.8733 56.5579C31.8733 56.4693 31.9451 56.3975 32.0337 56.3975H32.4233C32.727 56.3975 32.9732 56.1512 32.9732 55.8475Z" fill="url(#paint16_linear)"/>
<path opacity="0.7" fill-rule="evenodd" clip-rule="evenodd" d="M66.7601 58.9957C66.7601 58.5015 66.3594 58.1008 65.8652 58.1008C65.371 58.1008 64.9703 58.5015 64.9703 58.9957C64.9703 59.4899 65.371 59.8906 65.8652 59.8906C66.3594 59.8906 66.7601 59.4899 66.7601 58.9957ZM65.5071 25.8857C66.0013 25.8857 66.402 26.2863 66.402 26.7805C66.402 27.2747 66.0013 27.6754 65.5071 27.6754C65.0129 27.6754 64.6122 27.2747 64.6122 26.7805C64.6122 26.2863 65.0129 25.8857 65.5071 25.8857ZM14.9815 20.6125L14.8576 21.2323L14.7336 20.6125C14.5919 19.904 14.0381 19.3502 13.3296 19.2085L12.7099 19.0846L13.3296 18.9606C14.0381 18.8189 14.5919 18.2651 14.7336 17.5566L14.8576 16.9369L14.9815 17.5566C15.1232 18.2651 15.677 18.8189 16.3855 18.9606L17.0053 19.0846L16.3855 19.2085C15.677 19.3502 15.1232 19.904 14.9815 20.6125Z" fill="#FFF100"/>
<path fill-rule="evenodd" clip-rule="evenodd" d="M18.4372 13.8943C18.1663 13.8401 17.9545 13.6283 17.9003 13.3574C17.8461 13.6283 17.6343 13.8401 17.3634 13.8943C17.6343 13.9485 17.8461 14.1603 17.9003 14.4312C17.9545 14.1603 18.1663 13.9485 18.4372 13.8943ZM18.9741 52.3736C19.1006 53.0058 19.5948 53.5 20.227 53.6264C19.5948 53.7529 19.1006 54.247 18.9741 54.8792C18.8477 54.247 18.3535 53.7529 17.7213 53.6264C18.3535 53.5 18.8477 53.0058 18.9741 52.3736ZM58.7066 53.8053C58.7969 54.2569 59.1499 54.6099 59.6014 54.7002C59.1499 54.7905 58.7969 55.1435 58.7066 55.5951C58.6163 55.1435 58.2633 54.7905 57.8117 54.7002C58.2633 54.6099 58.6163 54.2569 58.7066 53.8053Z" fill="#00AEFF"/>
<path opacity="0.7" fill-rule="evenodd" clip-rule="evenodd" d="M0.745313 45.4906C1.15674 45.7644 1.71225 45.6529 1.98609 45.2415C2.25993 44.83 2.14839 44.2745 1.73697 44.0007C1.32555 43.7268 0.770035 43.8384 0.496196 44.2498C0.222357 44.6612 0.33389 45.2167 0.745313 45.4906ZM29.0025 62.7931C28.7286 63.2046 28.1731 63.3161 27.7617 63.0423C27.3503 62.7684 27.2387 62.2129 27.5126 61.8015C27.7864 61.3901 28.3419 61.2785 28.7533 61.5524C29.1648 61.8262 29.2763 62.3817 29.0025 62.7931ZM61.3874 23.6542L60.9401 23.2076L61.5247 23.4478C62.193 23.7224 62.9609 23.5683 63.4714 23.057L63.918 22.6097L63.6778 23.1943C63.4032 23.8626 63.5574 24.6305 64.0686 25.141L64.5159 25.5876L63.9313 25.3474C63.263 25.0728 62.4951 25.227 61.9846 25.7382L61.538 26.1855L61.7782 25.6009C62.0528 24.9326 61.8987 24.1647 61.3874 23.6542Z" fill="#FFF100"/>
<path fill-rule="evenodd" clip-rule="evenodd" d="M65.0653 30.2534C65.2605 30.0578 65.5542 29.9989 65.8098 30.1039C65.6142 29.9087 65.5553 29.615 65.6603 29.3594C65.4651 29.555 65.1714 29.6139 64.9158 29.5089C65.1114 29.7041 65.1703 29.9978 65.0653 30.2534ZM32.7352 9.37971C32.1388 9.13467 31.4537 9.27224 30.9981 9.72847C31.2431 9.13212 31.1056 8.44693 30.6493 7.99138C31.2457 8.23642 31.9309 8.09885 32.3864 7.64262C32.1414 8.23897 32.279 8.92416 32.7352 9.37971ZM9.52839 41.6622C9.10243 41.4872 8.61301 41.5855 8.28761 41.9113C8.46264 41.4854 8.36437 40.996 8.03849 40.6706C8.46446 40.8456 8.95388 40.7473 9.27927 40.4214C9.10425 40.8474 9.20251 41.3368 9.52839 41.6622Z" fill="#00AEFF"/>
<defs>
<linearGradient id="paint0_linear" x1="36.0993" y1="51.1498" x2="38.3713" y2="51.1498" gradientUnits="userSpaceOnUse">
<stop stop-color="#E9CCAB"/>
<stop offset="1" stop-color="#CB9F6B"/>
</linearGradient>
<linearGradient id="paint1_linear" x1="36.0993" y1="51.1498" x2="38.3713" y2="51.1498" gradientUnits="userSpaceOnUse">
<stop stop-color="#E9CCAB"/>
<stop offset="1" stop-color="#CB9F6B"/>
</linearGradient>
<linearGradient id="paint2_linear" x1="32.4232" y1="53.3273" x2="42.0475" y2="53.3273" gradientUnits="userSpaceOnUse">
<stop stop-color="#E9CCAB"/>
<stop offset="1" stop-color="#CB9F6B"/>
</linearGradient>
<linearGradient id="paint3_linear" x1="32.4232" y1="53.3273" x2="42.0475" y2="53.3273" gradientUnits="userSpaceOnUse">
<stop stop-color="#E9CCAB"/>
<stop offset="1" stop-color="#CB9F6B"/>
</linearGradient>
<linearGradient id="paint4_linear" x1="28.2665" y1="43.9378" x2="46.1401" y2="43.9378" gradientUnits="userSpaceOnUse">
<stop stop-color="#E9CCAB"/>
<stop offset="1" stop-color="#CB9F6B"/>
</linearGradient>
<linearGradient id="paint5_linear" x1="28.2665" y1="43.9378" x2="46.1401" y2="43.9378" gradientUnits="userSpaceOnUse">
<stop stop-color="#E9CCAB"/>
<stop offset="1" stop-color="#CB9F6B"/>
</linearGradient>
<linearGradient id="paint6_linear" x1="28.2665" y1="43.9378" x2="46.1401" y2="43.9378" gradientUnits="userSpaceOnUse">
<stop stop-color="#E9CCAB"/>
<stop offset="1" stop-color="#CB9F6B"/>
</linearGradient>
<linearGradient id="paint7_linear" x1="27.1666" y1="25.459" x2="47.2401" y2="25.459" gradientUnits="userSpaceOnUse">
<stop stop-color="#E9CCAB"/>
<stop offset="1" stop-color="#CB9F6B"/>
</linearGradient>
<linearGradient id="paint8_linear" x1="27.1666" y1="25.459" x2="47.2401" y2="25.459" gradientUnits="userSpaceOnUse">
<stop stop-color="#E9CCAB"/>
<stop offset="1" stop-color="#CB9F6B"/>
</linearGradient>
<linearGradient id="paint9_linear" x1="27.1666" y1="25.459" x2="47.2401" y2="25.459" gradientUnits="userSpaceOnUse">
<stop stop-color="#E9CCAB"/>
<stop offset="1" stop-color="#CB9F6B"/>
</linearGradient>
<linearGradient id="paint10_linear" x1="23.6654" y1="38.5559" x2="28.4631" y2="38.5559" gradientUnits="userSpaceOnUse">
<stop stop-color="#E9CCAB"/>
<stop offset="1" stop-color="#CB9F6B"/>
</linearGradient>
<linearGradient id="paint11_linear" x1="23.6654" y1="38.5559" x2="28.4631" y2="38.5559" gradientUnits="userSpaceOnUse">
<stop stop-color="#E9CCAB"/>
<stop offset="1" stop-color="#CB9F6B"/>
</linearGradient>
<linearGradient id="paint12_linear" x1="50.741" y1="38.5559" x2="45.9432" y2="38.5559" gradientUnits="userSpaceOnUse">
<stop stop-color="#E9CCAB"/>
<stop offset="1" stop-color="#CB9F6B"/>
</linearGradient>
<linearGradient id="paint13_linear" x1="29.9484" y1="60.1578" x2="44.5223" y2="60.1578" gradientUnits="userSpaceOnUse">
<stop stop-color="#E9CCAB"/>
<stop offset="1" stop-color="#CB9F6B"/>
</linearGradient>
<linearGradient id="paint14_linear" x1="29.9484" y1="60.1578" x2="44.5223" y2="60.1578" gradientUnits="userSpaceOnUse">
<stop stop-color="#E9CCAB"/>
<stop offset="1" stop-color="#CB9F6B"/>
</linearGradient>
<linearGradient id="paint15_linear" x1="29.4791" y1="61.3818" x2="45.2629" y2="61.3818" gradientUnits="userSpaceOnUse">
<stop stop-color="#E9CCAB"/>
<stop offset="1" stop-color="#CB9F6B"/>
</linearGradient>
<linearGradient id="paint16_linear" x1="31.8732" y1="59.3319" x2="42.5975" y2="59.3319" gradientUnits="userSpaceOnUse">
<stop stop-color="#E9CCAB"/>
<stop offset="1" stop-color="#CB9F6B"/>
</linearGradient>
</defs>
</svg>
